<svg width="20" height="13" viewBox="0 0 20 13" fill="none" xmlns="http://www.w3.org/2000/svg">
<path d="M0 0H20V13H0V0ZM10 3.25C10.8841 3.25 11.7319 3.59241 12.357 4.2019C12.9821 4.8114 13.3333 5.63805 13.3333 6.5C13.3333 7.36195 12.9821 8.1886 12.357 8.7981C11.7319 9.40759 10.8841 9.75 10 9.75C9.11595 9.75 8.2681 9.40759 7.64298 8.7981C7.01786 8.1886 6.66667 7.36195 6.66667 6.5C6.66667 5.63805 7.01786 4.8114 7.64298 4.2019C8.2681 3.59241 9.11595 3.25 10 3.25ZM4.44444 2.16667C4.44444 2.7413 4.21032 3.2924 3.79357 3.69873C3.37682 4.10506 2.81159 4.33333 2.22222 4.33333V8.66667C2.81159 8.66667 3.37682 8.89494 3.79357 9.30127C4.21032 9.7076 4.44444 10.2587 4.44444 10.8333H15.5556C15.5556 10.2587 15.7897 9.7076 16.2064 9.30127C16.6232 8.89494 17.1884 8.66667 17.7778 8.66667V4.33333C17.1884 4.33333 16.6232 4.10506 16.2064 3.69873C15.7897 3.2924 15.5556 2.7413 15.5556 2.16667H4.44444Z" fill="#EAEAEA"/>
</svg>
