<svg width="27" height="12" viewBox="0 0 27 12" fill="none" xmlns="http://www.w3.org/2000/svg">
<path opacity="0.35" fill-rule="evenodd" clip-rule="evenodd" d="M21.4269 0.668213C23.0336 0.668213 24.336 1.86212 24.336 3.33488V9.33488C24.336 10.8076 23.0336 12.0015 21.4269 12.0015H3.24509C1.63844 12.0015 0.335999 10.8076 0.335999 9.33488V3.33488C0.335999 1.86212 1.63844 0.668213 3.24509 0.668213H21.4269ZM21.4269 1.66821H3.24504C2.29374 1.66821 1.51308 2.33793 1.43354 3.19107L1.42686 3.33488V9.33488C1.42686 10.2069 2.15746 10.9225 3.08816 10.9954L3.24504 11.0015H21.4269C22.3782 11.0015 23.1588 10.3318 23.2384 9.47869L23.245 9.33488V3.33488C23.245 2.46285 22.5144 1.74724 21.5837 1.67433L21.4269 1.66821ZM26.664 6.33487C26.664 7.208 26.1407 7.99609 25.336 8.33487V4.33487C26.1407 4.67365 26.664 5.46174 26.664 6.33487Z" fill="black"/>
<rect x="3.00006" y="3.38721" width="16" height="6" rx="1.33333" fill="#00DD09"/>
</svg>
