<svg width="17" height="11" viewBox="0 0 17 11" fill="none" xmlns="http://www.w3.org/2000/svg">
<path fill-rule="evenodd" clip-rule="evenodd" d="M16 0.00170898H15C14.4477 0.00170898 14 0.449424 14 1.00171V9.66838C14 10.2207 14.4477 10.6684 15 10.6684H16C16.5523 10.6684 17 10.2207 17 9.66838V1.00171C17 0.449424 16.5523 0.00170898 16 0.00170898ZM10.3333 2.33504H11.3333C11.8856 2.33504 12.3333 2.78276 12.3333 3.33504V9.66838C12.3333 10.2207 11.8856 10.6684 11.3333 10.6684H10.3333C9.78105 10.6684 9.33333 10.2207 9.33333 9.66838V3.33504C9.33333 2.78276 9.78105 2.33504 10.3333 2.33504ZM6.66667 4.66838H5.66667C5.11438 4.66838 4.66667 5.11609 4.66667 5.66838V9.66838C4.66667 10.2207 5.11438 10.6684 5.66667 10.6684H6.66667C7.21895 10.6684 7.66667 10.2207 7.66667 9.66838V5.66838C7.66667 5.11609 7.21895 4.66838 6.66667 4.66838ZM2 6.66838H1C0.447715 6.66838 0 7.11609 0 7.66838V9.66838C0 10.2207 0.447715 10.6684 1 10.6684H2C2.55228 10.6684 3 10.2207 3 9.66838V7.66838C3 7.11609 2.55228 6.66838 2 6.66838Z" fill="black"/>
</svg>
