<svg width="27" height="29" viewBox="0 0 27 29" fill="none" xmlns="http://www.w3.org/2000/svg">
<path d="M0.601904 23.0112C-0.168336 22.6603 -0.210421 20.9971 0.539728 20.5541L13.2008 13.0766C13.3935 12.9628 13.6065 12.9628 13.7992 13.0766L26.4603 20.5541C27.2104 20.9971 27.1683 22.6603 26.3981 23.0112L13.7371 28.7804C13.5823 28.8509 13.4177 28.8509 13.2629 28.7804L0.601904 23.0112Z" fill="#EF7E20"/>
<path d="M0.601904 20.9849C-0.168336 20.6339 -0.210421 18.9707 0.539728 18.5277L13.2008 11.0503C13.3935 10.9365 13.6065 10.9365 13.7992 11.0503L26.4603 18.5277C27.2104 18.9707 27.1683 20.6339 26.3981 20.9849L13.7371 26.754C13.5823 26.8245 13.4177 26.8245 13.2629 26.754L0.601904 20.9849Z" fill="white" fill-opacity="0.31"/>
<path d="M0.601904 18.9586C-0.168336 18.6076 -0.210421 16.9444 0.539728 16.5014L13.2008 9.02395C13.3935 8.91014 13.6065 8.91014 13.7992 9.02395L26.4603 16.5014C27.2104 16.9444 27.1683 18.6076 26.3981 18.9586L13.7371 24.7277C13.5823 24.7982 13.4177 24.7982 13.2629 24.7277L0.601904 18.9586Z" fill="#EF7E20"/>
<path d="M0.601904 16.9322C-0.168336 16.5813 -0.210421 14.9181 0.539728 14.475L13.2008 6.99761C13.3935 6.88381 13.6065 6.88381 13.7992 6.99761L26.4603 14.475C27.2104 14.9181 27.1683 16.5813 26.3981 16.9322L13.7371 22.7014C13.5823 22.7719 13.4177 22.7719 13.2629 22.7014L0.601904 16.9322Z" fill="white" fill-opacity="0.31"/>
<path d="M0.601904 14.9059C-0.168336 14.5549 -0.210421 12.8917 0.539728 12.4487L13.2008 4.97128C13.3935 4.85747 13.6065 4.85747 13.7992 4.97128L26.4603 12.4487C27.2104 12.8917 27.1683 14.5549 26.3981 14.9059L13.7371 20.675C13.5823 20.7455 13.4177 20.7455 13.2629 20.675L0.601904 14.9059Z" fill="#EF7E20"/>
<path d="M0.601904 12.8796C-0.168336 12.5286 -0.210421 10.8654 0.539728 10.4224L13.2008 2.94494C13.3935 2.83114 13.6065 2.83114 13.7992 2.94494L26.4603 10.4224C27.2104 10.8654 27.1683 12.5286 26.3981 12.8796L13.7371 18.6487C13.5823 18.7192 13.4177 18.7192 13.2629 18.6487L0.601904 12.8796Z" fill="white" fill-opacity="0.31"/>
<path d="M0.601904 10.8532C-0.168336 10.5023 -0.210421 8.83907 0.539728 8.39604L13.2008 0.918608C13.3935 0.8048 13.6065 0.8048 13.7992 0.918608L26.4603 8.39604C27.2104 8.83907 27.1683 10.5023 26.3981 10.8532L13.7371 16.6224C13.5823 16.6929 13.4177 16.6929 13.2629 16.6224L0.601904 10.8532Z" fill="#EF7E20"/>
<rect x="12" y="14.8333" width="15" height="14" rx="7" fill="#D9D9D9" fill-opacity="0.7"/>
<path d="M23.1148 20.119C22.808 19.4722 22.3333 18.9197 21.7401 18.5189C21.147 18.1182 20.4571 17.8839 19.7426 17.8406C19.028 17.7973 18.3149 17.9465 17.6777 18.2726C17.0404 18.5987 16.5024 19.0899 16.1197 19.6948C15.737 20.2997 15.5236 20.9963 15.5018 21.7117C15.4801 22.4272 15.6508 23.1354 15.996 23.7624C16.3413 24.3895 16.8485 24.9124 17.4647 25.2766C18.081 25.6409 18.7837 25.8331 19.4996 25.8333C21.3112 25.8333 23.0085 24.6275 23.5 22.9761M23.1148 20.119V18.041M23.1148 20.119L20.9551 20.3787" stroke="white" stroke-width="0.9" stroke-linecap="round" stroke-linejoin="round"/>
</svg>
