<svg width="58" height="61" viewBox="0 0 58 61" fill="none" xmlns="http://www.w3.org/2000/svg">
<path d="M24.8142 1.06265C27.4044 -0.354218 30.5956 -0.354218 33.1858 1.06265L53.8142 12.3468C56.4044 13.7636 58 16.3747 58 19.2084C58 24.6056 58 33.8515 58 41.7864C58 44.6202 56.4044 47.2364 53.8142 48.6532L33.1858 59.9373C30.5956 61.3542 27.4044 61.3542 24.8142 59.9373L4.18579 48.6532C1.59562 47.2364 0 44.6179 0 41.7841V19.2159C0 16.3821 1.59561 13.7636 4.18579 12.3468L24.8142 1.06265Z" fill="#26A768"/>
<path fill-rule="evenodd" clip-rule="evenodd" d="M31.5695 43.5628C30.9132 41.1197 29.5417 40.2375 24.174 36.6409C18.8063 33.0443 18.5678 21.8473 18.5678 21.8473C18.5678 21.8473 21.9077 25.8511 25.3668 27.0726C28.826 28.2941 31.3905 31.7549 31.6291 33.8586L31.5721 25.4439C31.5721 25.4439 31.9295 22.3902 34.3156 21.1008C36.7013 19.8115 38.8483 18.0471 39.2061 16.622C39.2061 16.622 40.22 22.2545 37.9537 24.9688C35.6873 27.6833 32.586 28.3619 32.2878 29.9227L32.2309 47.0915L31.6341 47.0267L31.5695 43.5628Z" fill="#FFFEFB"/>
<path fill-rule="evenodd" clip-rule="evenodd" d="M29.6287 22.7981C29.6287 22.7981 30.2251 22.5267 28.257 20.4908C26.2889 18.455 28.0781 13.9084 28.0781 13.9084C28.0781 13.9084 28.4956 15.2656 29.4499 16.2835C30.4041 17.3014 31.5372 20.1516 29.6287 22.7981Z" fill="#FFFEFB"/>
</svg>
