<svg width="27" height="29" viewBox="0 0 27 29" fill="none" xmlns="http://www.w3.org/2000/svg">
<path d="M18.383 10.0605C18.383 15.1566 15.168 19.2878 11.2021 19.2878C7.23625 19.2878 4.02128 15.1566 4.02128 10.0605C4.02128 4.96444 7.23625 0.833252 11.2021 0.833252C15.168 0.833252 18.383 4.96444 18.383 10.0605Z" fill="#7A14EF"/>
<path d="M27 12.606C27 17.7021 23.2706 21.8333 18.6702 21.8333C14.0698 21.8333 10.3404 17.7021 10.3404 12.606C10.3404 7.5099 14.0698 3.37871 18.6702 3.37871C23.2706 3.37871 27 7.5099 27 12.606Z" fill="#7A14EF"/>
<path d="M16.6596 13.5605C16.6596 18.1294 12.9302 21.8333 8.32979 21.8333C3.72937 21.8333 0 18.1294 0 13.5605C0 8.99162 3.72937 5.2878 8.32979 5.2878C12.9302 5.2878 16.6596 8.99162 16.6596 13.5605Z" fill="#7A14EF"/>
<rect x="12" y="13.8333" width="15" height="15" rx="7.5" fill="#D9D9D9" fill-opacity="0.7"/>
<path d="M19 15.8333H20.2V21.8333H19V15.8333Z" fill="white"/>
<path d="M19 21.8333V20.6333H25V21.8333H19Z" fill="white"/>
</svg>
