<svg width="30" height="30" viewBox="0 0 30 30" fill="none" xmlns="http://www.w3.org/2000/svg">
<rect width="30" height="30" rx="9" fill="#929AAB"/>
<path d="M22.625 10.9501L19.0505 7.37499C18.9317 7.25611 18.7906 7.1618 18.6352 7.09746C18.4799 7.03312 18.3135 7 18.1453 7C17.9772 7 17.8107 7.03312 17.6554 7.09746C17.5001 7.1618 17.359 7.25611 17.2401 7.37499L7.37521 17.2402C7.25583 17.3586 7.16119 17.4996 7.09677 17.6549C7.03236 17.8103 6.99947 17.9768 7.00001 18.145V21.72C7.00001 22.0595 7.13486 22.3851 7.37491 22.6251C7.61496 22.8651 7.94054 23 8.28002 23H11.8553C12.0234 23.0005 12.19 22.9676 12.3453 22.9032C12.5007 22.8388 12.6416 22.7442 12.7601 22.6248L22.625 12.7604C22.7439 12.6415 22.8382 12.5004 22.9025 12.3451C22.9669 12.1898 23 12.0233 23 11.8552C23 11.6871 22.9669 11.5206 22.9025 11.3653C22.8382 11.21 22.7439 11.0689 22.625 10.9501ZM8.54482 17.8802L15.7729 10.6525L17.1073 11.9876L9.88004 19.2145L8.54482 17.8802ZM8.28002 19.4249L10.5752 21.72H8.28002V19.4249ZM12.1201 21.4553L10.7849 20.1201L18.0129 12.8924L19.3474 14.2275L12.1201 21.4553Z" fill="white"/>
</svg>
