<svg width="15" height="15" viewBox="0 0 15 15" fill="none" xmlns="http://www.w3.org/2000/svg">
<path d="M6.65521 8.28336H1.87743C1.60669 8.28336 1.37991 8.19163 1.19708 8.00816C1.01425 7.8247 0.922515 7.59791 0.921878 7.32781C0.921241 7.0577 1.01297 6.83092 1.19708 6.64745C1.38118 6.46399 1.60797 6.37225 1.87743 6.37225H6.65521V1.59447C6.65521 1.32373 6.74694 1.09695 6.93041 0.914119C7.11388 0.73129 7.34066 0.639556 7.61077 0.638919C7.88087 0.638282 8.10797 0.730016 8.29208 0.914119C8.47618 1.09822 8.5676 1.32501 8.56632 1.59447V6.37225H13.3441C13.6148 6.37225 13.8419 6.46399 14.0254 6.64745C14.2089 6.83092 14.3003 7.0577 14.2997 7.32781C14.299 7.59791 14.2073 7.82502 14.0245 8.00912C13.8416 8.19322 13.6148 8.28464 13.3441 8.28336H8.56632V13.0611C8.56632 13.3319 8.47459 13.559 8.29112 13.7425C8.10766 13.9259 7.88087 14.0173 7.61077 14.0167C7.34066 14.0161 7.11388 13.9243 6.93041 13.7415C6.74694 13.5587 6.65521 13.3319 6.65521 13.0611V8.28336Z" fill="#26A768"/>
<path d="M6.65521 8.28336H1.87743C1.60669 8.28336 1.37991 8.19163 1.19708 8.00816C1.01425 7.8247 0.922515 7.59791 0.921878 7.32781C0.921241 7.0577 1.01297 6.83092 1.19708 6.64745C1.38118 6.46399 1.60797 6.37225 1.87743 6.37225H6.65521V1.59447C6.65521 1.32373 6.74694 1.09695 6.93041 0.914119C7.11388 0.73129 7.34066 0.639556 7.61077 0.638919C7.88087 0.638282 8.10797 0.730016 8.29208 0.914119C8.47618 1.09822 8.5676 1.32501 8.56632 1.59447V6.37225H13.3441C13.6148 6.37225 13.8419 6.46399 14.0254 6.64745C14.2089 6.83092 14.3003 7.0577 14.2997 7.32781C14.299 7.59791 14.2073 7.82502 14.0245 8.00912C13.8416 8.19322 13.6148 8.28464 13.3441 8.28336H8.56632V13.0611C8.56632 13.3319 8.47459 13.559 8.29112 13.7425C8.10766 13.9259 7.88087 14.0173 7.61077 14.0167C7.34066 14.0161 7.11388 13.9243 6.93041 13.7415C6.74694 13.5587 6.65521 13.3319 6.65521 13.0611V8.28336Z" fill="url(#paint0_linear_2111_1763)"/>
<defs>
<linearGradient id="paint0_linear_2111_1763" x1="7.61077" y1="0.638916" x2="7.61077" y2="14.0167" gradientUnits="userSpaceOnUse">
<stop offset="0.92" stop-color="#26A768" stop-opacity="0"/>
<stop offset="1" stop-color="#26A768"/>
</linearGradient>
</defs>
</svg>
