<svg width="25" height="25" viewBox="0 0 25 25" fill="none" xmlns="http://www.w3.org/2000/svg">
<path d="M12.1113 20.3279C9.87799 20.3279 7.98633 19.5529 6.43633 18.0029C4.88633 16.4529 4.11133 14.5612 4.11133 12.3279C4.11133 10.0946 4.88633 8.20288 6.43633 6.65288C7.98633 5.10288 9.87799 4.32788 12.1113 4.32788C13.2613 4.32788 14.3613 4.56522 15.4113 5.03988C16.4613 5.51455 17.3613 6.19388 18.1113 7.07788V5.32788C18.1113 5.04455 18.2073 4.80722 18.3993 4.61588C18.5913 4.42455 18.8287 4.32855 19.1113 4.32788C19.394 4.32722 19.6317 4.42322 19.8243 4.61588C20.017 4.80855 20.1127 5.04588 20.1113 5.32788V10.3279C20.1113 10.6112 20.0153 10.8489 19.8233 11.0409C19.6313 11.2329 19.394 11.3286 19.1113 11.3279H14.1113C13.828 11.3279 13.5907 11.2319 13.3993 11.0399C13.208 10.8479 13.112 10.6106 13.1113 10.3279C13.1107 10.0452 13.2067 9.80788 13.3993 9.61588C13.592 9.42388 13.8293 9.32788 14.1113 9.32788H17.3113C16.778 8.39455 16.049 7.66122 15.1243 7.12788C14.1997 6.59455 13.1953 6.32788 12.1113 6.32788C10.4447 6.32788 9.02799 6.91122 7.86133 8.07788C6.69466 9.24455 6.11133 10.6612 6.11133 12.3279C6.11133 13.9946 6.69466 15.4112 7.86133 16.5779C9.02799 17.7446 10.4447 18.3279 12.1113 18.3279C13.2447 18.3279 14.2823 18.0406 15.2243 17.4659C16.1663 16.8912 16.8953 16.1202 17.4113 15.1529C17.5447 14.9196 17.7323 14.7572 17.9743 14.6659C18.2163 14.5746 18.462 14.5702 18.7113 14.6529C18.978 14.7362 19.1697 14.9112 19.2863 15.1779C19.403 15.4446 19.3947 15.6946 19.2613 15.9279C18.578 17.2612 17.603 18.3279 16.3363 19.1279C15.0697 19.9279 13.6613 20.3279 12.1113 20.3279Z" fill="#26A768"/>
</svg>
