<svg width="41" height="37" viewBox="0 0 41 37" fill="none" xmlns="http://www.w3.org/2000/svg">
<path d="M26.0001 31.4062H27.0707L33.6663 25.207L32.5957 24.2008L26.0001 30.4V31.4062ZM36.9354 24.1648L33.6854 21.1461L34.756 20.1398C35.0491 19.8643 35.4093 19.7266 35.8365 19.7266C36.2632 19.7266 36.6232 19.8643 36.9163 20.1398L37.9869 21.1461C38.28 21.4216 38.433 21.7542 38.4457 22.1437C38.4585 22.5328 38.3183 22.8651 38.0251 23.1406L36.9354 24.1648ZM25.2354 32.8438C25.0187 32.8438 24.8373 32.7747 24.6909 32.6368C24.5441 32.4992 24.4707 32.3286 24.4707 32.125V30.0945C24.4707 29.9987 24.4898 29.906 24.5281 29.8164C24.5663 29.7263 24.6236 29.6453 24.7001 29.5734L32.5766 22.1703L35.8266 25.225L27.9501 32.6281C27.8736 32.7 27.7877 32.7539 27.6924 32.7898C27.5966 32.8258 27.4977 32.8438 27.3957 32.8438H25.2354Z" fill="black"/>
<path d="M6.88281 8.75H26.0005" stroke="black" stroke-width="2" stroke-linecap="round"/>
<path d="M6.88281 14.75H26.0005" stroke="black" stroke-width="2" stroke-linecap="round"/>
<path d="M6.88281 26.75H22.1769" stroke="black" stroke-width="2" stroke-linecap="round"/>
<path d="M6.88281 20.75H26.0005" stroke="black" stroke-width="2" stroke-linecap="round"/>
<path d="M31.3528 20V4C31.3528 2.89543 30.4574 2 29.3528 2H3.5293C2.42473 2 1.5293 2.89543 1.5293 4V33.375C1.5293 34.4796 2.42473 35.375 3.5293 35.375H28.2058C29.3103 35.375 30.2058 34.4796 30.2058 33.375V33.125" stroke="black" stroke-width="2" stroke-linecap="round"/>
</svg>
