<svg width="222" height="234" viewBox="0 0 222 234" fill="none" xmlns="http://www.w3.org/2000/svg">
<path d="M94.9785 4.32595C104.893 -1.09725 117.107 -1.09726 127.021 4.32595L205.979 47.5169C215.893 52.9401 222 62.9341 222 73.7805C222 94.4386 222 129.828 222 160.2C222 171.046 215.893 181.06 205.979 186.483L127.021 229.674C117.107 235.097 104.893 235.097 94.9785 229.674L16.0215 186.483C6.10735 181.06 0 171.037 0 160.191V73.809C0 62.9626 6.10735 52.9401 16.0215 47.5169L94.9785 4.32595Z" fill="#26A768"/>
<path fill-rule="evenodd" clip-rule="evenodd" d="M120.835 166.999C118.323 157.648 113.073 154.271 92.5282 140.505C71.9829 126.739 71.0698 83.8808 71.0698 83.8808C71.0698 83.8808 83.8535 99.2058 97.0938 103.881C110.334 108.557 120.15 121.803 121.063 129.855L120.845 97.6474C120.845 97.6474 122.213 85.959 131.346 81.0236C140.477 76.0886 148.695 69.3355 150.065 63.8807C150.065 63.8807 153.946 85.4395 145.271 95.8289C136.596 106.219 124.726 108.816 123.584 114.79L123.366 180.505L121.082 180.257L120.835 166.999Z" fill="#FFFEFB"/>
<path fill-rule="evenodd" clip-rule="evenodd" d="M113.407 87.5204C113.407 87.5204 115.689 86.4815 108.156 78.6889C100.623 70.8968 107.471 53.494 107.471 53.494C107.471 53.494 109.069 58.689 112.722 62.5851C116.374 66.4812 120.711 77.3905 113.407 87.5204Z" fill="#FFFEFB"/>
</svg>
