<svg width="16" height="20" viewBox="0 0 16 20" fill="none" xmlns="http://www.w3.org/2000/svg">
<path id="Vector" d="M0.888889 0H15.1111C15.3469 0 15.573 0.0957789 15.7397 0.266267C15.9064 0.436754 16 0.667985 16 0.909091V4.54545C16 4.78656 15.9064 5.01779 15.7397 5.18828C15.573 5.35877 15.3469 5.45455 15.1111 5.45455H0.888889C0.653141 5.45455 0.427048 5.35877 0.260349 5.18828C0.0936505 5.01779 0 4.78656 0 4.54545V0.909091C0 0.667985 0.0936505 0.436754 0.260349 0.266267C0.427048 0.0957789 0.653141 0 0.888889 0ZM0.888889 7.27273H15.1111C15.3469 7.27273 15.573 7.36851 15.7397 7.53899C15.9064 7.70948 16 7.94071 16 8.18182V11.8182C16 12.0593 15.9064 12.2905 15.7397 12.461C15.573 12.6315 15.3469 12.7273 15.1111 12.7273H0.888889C0.653141 12.7273 0.427048 12.6315 0.260349 12.461C0.0936505 12.2905 0 12.0593 0 11.8182V8.18182C0 7.94071 0.0936505 7.70948 0.260349 7.53899C0.427048 7.36851 0.653141 7.27273 0.888889 7.27273ZM0.888889 14.5455H15.1111C15.3469 14.5455 15.573 14.6412 15.7397 14.8117C15.9064 14.9822 16 15.2134 16 15.4545V19.0909C16 19.332 15.9064 19.5632 15.7397 19.7337C15.573 19.9042 15.3469 20 15.1111 20H0.888889C0.653141 20 0.427048 19.9042 0.260349 19.7337C0.0936505 19.5632 0 19.332 0 19.0909V15.4545C0 15.2134 0.0936505 14.9822 0.260349 14.8117C0.427048 14.6412 0.653141 14.5455 0.888889 14.5455ZM5.33333 3.63636H6.22222V1.81818H5.33333V3.63636ZM5.33333 10.9091H6.22222V9.09091H5.33333V10.9091ZM5.33333 18.1818H6.22222V16.3636H5.33333V18.1818ZM1.77778 1.81818V3.63636H3.55556V1.81818H1.77778ZM1.77778 9.09091V10.9091H3.55556V9.09091H1.77778ZM1.77778 16.3636V18.1818H3.55556V16.3636H1.77778Z" fill="#4CDA95"/>
</svg>
