<svg height="32" viewBox="0 0 32 32" width="32" xmlns="http://www.w3.org/2000/svg"><path d="m14.08 11.893c-.41-.145-.739-.377-.989-.747-.446-.66-.306-1.541.545-2.048 1.004-.596 2.11-.59 3.098.092.965.666.839 1.967-.209 2.521-.191.101-.397.174-.591.231-.336.1-1.196.183-1.853-.05zm13.902 11.009c-2.443.018-4.888-.024-7.333-.032-1.545-.005-3.092-.008-4.637-.008-.304 0-.608 0-.912 0-1.969 0-3.938.023-5.907.029-1.784.006-3.568.013-5.352.018-1.487.003-2.905 1.17-3.2 2.592-.151.726-.158 1.492-.155 2.239.009 1.868 1.633 3.491 3.495 3.492 8.011.009 16.021.008 24.032.002 1.514-.001 2.992-1.126 3.334-2.605.158-.683.149-1.411.165-2.12.04-1.855-1.496-3.624-3.531-3.608zm-3.627 4.133c-.001-.954.833-1.804 1.795-1.776.456.013.927.208 1.266.541.555.544.535 1.983-.02 2.514-.336.323-.797.53-1.251.518-1.006-.027-1.788-.791-1.791-1.797zm-20.543-5.315c8.118.007 16.235.005 24.354.002.789 0 1.539.158 2.24.528.172.091.344.184.526.283.29.158.518.203.513.102-.004-.076-.007-.131-.017-.183-.15-.843-.297-1.684-.456-2.525-.129-.681-.278-1.359-.41-2.04-.201-1.033-.399-2.066-.589-3.1-.137-.748-.251-1.501-.393-2.247-.262-1.394-.538-2.785-.804-4.177-.165-.866-.326-1.733-.482-2.6-.137-.774-.255-1.552-.399-2.325-.066-.355-.121-.726-.267-1.051-.666-1.484-1.859-2.185-3.462-2.187-5.395-.008-10.789.001-16.184-.008-.779-.001-1.514.129-2.185.534-.935.565-1.495 1.398-1.691 2.464-.164.889-.285 1.786-.441 2.677-.129.739-.29 1.472-.424 2.211-.137.762-.243 1.528-.389 2.287-.258 1.342-.543 2.678-.802 4.02-.151.786-.263 1.58-.41 2.367-.317 1.691-.647 3.38-.966 5.07-.029.151-.052.305-.075.458-.036.253-.036.463-.002.471.032.008.05.013.062.006.067-.033.131-.074.194-.113.908-.559 1.868-.923 2.958-.923zm3.192-12.658c.336-.894.918-1.706 1.702-2.446 1.522-1.44 3.38-2.197 5.437-2.481.585-.081 1.177-.133 1.768-.151 1.382-.041 2.712.217 4.024.661 1.09.369 2.073.904 2.962 1.618 1.019.818 1.797 1.833 2.183 3.082.347 1.123.336 2.258-.066 3.402-.706 2.011-2.18 3.254-4.006 4.154-1.578.778-3.263 1.12-4.87 1.075-2.028.024-3.84-.363-5.464-1.232-.773-.413-1.703-.485-2.159-.026s-1.082.167-1.399-.65l-1.63-4.201c-.317-.817-.178-1.43.312-1.369.489.062.9-.615 1.208-1.436zm5.024 2.03-4.281.084c-.876.017-1.336.696-1.027 1.516l.671 1.781c.309.82 1.097 1.02 1.76.447l3.262-2.821c.664-.573.491-1.023-.386-1.007z"/></svg>